<svg width="20" height="20" viewBox="0 0 20 20" fill="none" xmlns="http://www.w3.org/2000/svg">
<path d="M4.72 11.6883C4.48 11.716 4.24 11.7455 4 11.7769M4.72 11.6883C8.22626 11.2823 11.7737 11.2823 15.28 11.6883M4.72 11.6883L4.34 15.5385M15.28 11.6883C15.52 11.716 15.76 11.7455 16 11.7769M15.28 11.6883L15.66 15.5385L15.889 17.8674C15.9032 18.0111 15.8848 18.1559 15.8349 18.2927C15.7851 18.4294 15.7049 18.5551 15.5995 18.6616C15.4942 18.7682 15.3659 18.8533 15.2229 18.9116C15.0799 18.9698 14.9253 19 14.769 19H5.231C4.569 19 4.051 18.4757 4.111 17.8674L4.34 15.5385M4.34 15.5385H3.25C2.65326 15.5385 2.08097 15.3196 1.65901 14.9301C1.23705 14.5406 1 14.0124 1 13.4615V7.65169C1 6.65385 1.768 5.79169 2.837 5.644C3.47295 5.55619 4.11074 5.48017 4.75 5.416M15.658 15.5385H16.749C17.0446 15.5386 17.3372 15.485 17.6103 15.3806C17.8834 15.2763 18.1316 15.1233 18.3406 14.9305C18.5497 14.7376 18.7155 14.5086 18.8286 14.2566C18.9418 14.0045 19 13.7344 19 13.4615V7.65169C19 6.65385 18.232 5.79169 17.163 5.644C16.5271 5.55619 15.8893 5.48018 15.25 5.416M15.25 5.416C11.7603 5.06551 8.2397 5.06551 4.75 5.416M15.25 5.416V2.03846C15.25 1.46523 14.746 1 14.125 1H5.875C5.254 1 4.75 1.46523 4.75 2.03846V5.416M16 8.61538H16.008V8.62277H16V8.61538ZM13 8.61538H13.008V8.62277H13V8.61538Z" stroke="#4C4D4F" stroke-linecap="round" stroke-linejoin="round"/>
</svg>
